<mxfile host="65bd71144e">
    <diagram id="e6T0zNbR8jDaJChjfRKA" name="Page-1">
        <mxGraphModel dx="385" dy="396" grid="1" gridSize="10" guides="1" tooltips="1" connect="1" arrows="1" fold="1" page="1" pageScale="1" pageWidth="1100" pageHeight="850" math="0" shadow="0">
            <root>
                <mxCell id="OgqMPnVHMlgZvbWQcypy-0"/>
                <mxCell id="OgqMPnVHMlgZvbWQcypy-1" parent="OgqMPnVHMlgZvbWQcypy-0"/>
                <mxCell id="3" value="Valid I_Cache_Req" style="edgeStyle=none;html=1;exitX=0;exitY=1;exitDx=0;exitDy=0;entryX=1;entryY=0;entryDx=0;entryDy=0;" edge="1" parent="OgqMPnVHMlgZvbWQcypy-1" source="0" target="1">
                    <mxGeometry relative="1" as="geometry"/>
                </mxCell>
                <mxCell id="4" value="Valid D_Cache_Req" style="edgeStyle=none;html=1;exitX=1;exitY=1;exitDx=0;exitDy=0;entryX=0;entryY=0;entryDx=0;entryDy=0;" edge="1" parent="OgqMPnVHMlgZvbWQcypy-1" source="0" target="2">
                    <mxGeometry relative="1" as="geometry"/>
                </mxCell>
                <mxCell id="0" value="IDLE" style="ellipse;whiteSpace=wrap;html=1;aspect=fixed;" vertex="1" parent="OgqMPnVHMlgZvbWQcypy-1">
                    <mxGeometry x="270" y="280" width="80" height="80" as="geometry"/>
                </mxCell>
                <mxCell id="5" value="pmem_resp" style="edgeStyle=none;html=1;exitX=0.5;exitY=0;exitDx=0;exitDy=0;entryX=0;entryY=0.5;entryDx=0;entryDy=0;" edge="1" parent="OgqMPnVHMlgZvbWQcypy-1" source="1" target="0">
                    <mxGeometry relative="1" as="geometry">
                        <Array as="points">
                            <mxPoint x="200" y="320"/>
                        </Array>
                    </mxGeometry>
                </mxCell>
                <mxCell id="1" value="INST" style="ellipse;whiteSpace=wrap;html=1;aspect=fixed;" vertex="1" parent="OgqMPnVHMlgZvbWQcypy-1">
                    <mxGeometry x="160" y="440" width="80" height="80" as="geometry"/>
                </mxCell>
                <mxCell id="6" value="pmem_resp" style="edgeStyle=none;html=1;exitX=1;exitY=0.5;exitDx=0;exitDy=0;entryX=1;entryY=0.5;entryDx=0;entryDy=0;" edge="1" parent="OgqMPnVHMlgZvbWQcypy-1" source="2" target="0">
                    <mxGeometry relative="1" as="geometry">
                        <Array as="points">
                            <mxPoint x="480" y="320"/>
                        </Array>
                    </mxGeometry>
                </mxCell>
                <mxCell id="2" value="DATA" style="ellipse;whiteSpace=wrap;html=1;aspect=fixed;" vertex="1" parent="OgqMPnVHMlgZvbWQcypy-1">
                    <mxGeometry x="400" y="440" width="80" height="80" as="geometry"/>
                </mxCell>
                <mxCell id="7" value="No-Request" style="edgeStyle=none;html=1;exitX=0;exitY=0;exitDx=0;exitDy=0;entryX=1;entryY=0;entryDx=0;entryDy=0;" edge="1" parent="OgqMPnVHMlgZvbWQcypy-1" source="0" target="0">
                    <mxGeometry relative="1" as="geometry">
                        <Array as="points">
                            <mxPoint x="290" y="260"/>
                            <mxPoint x="310" y="250"/>
                            <mxPoint x="330" y="260"/>
                        </Array>
                    </mxGeometry>
                </mxCell>
                <mxCell id="8" value="In the case of a tie at Idle, we choose to move to INST (Arbitrary Choice)" style="text;html=1;strokeColor=none;fillColor=none;align=center;verticalAlign=middle;whiteSpace=wrap;rounded=0;" vertex="1" parent="OgqMPnVHMlgZvbWQcypy-1">
                    <mxGeometry x="360" y="250" width="130" height="50" as="geometry"/>
                </mxCell>
                <mxCell id="9" value="In INST and DATA State we simply pass the request of the corresponding cache to the pmem until completion" style="text;html=1;strokeColor=none;fillColor=none;align=center;verticalAlign=middle;whiteSpace=wrap;rounded=0;" vertex="1" parent="OgqMPnVHMlgZvbWQcypy-1">
                    <mxGeometry x="291" y="480" width="60" height="30" as="geometry"/>
                </mxCell>
                <mxCell id="10" value="!pmem_resp" style="edgeStyle=none;html=1;exitX=1;exitY=1;exitDx=0;exitDy=0;entryX=0.139;entryY=0.921;entryDx=0;entryDy=0;entryPerimeter=0;" edge="1" parent="OgqMPnVHMlgZvbWQcypy-1" source="1" target="1">
                    <mxGeometry relative="1" as="geometry">
                        <Array as="points">
                            <mxPoint x="230" y="540"/>
                            <mxPoint x="200" y="550"/>
                            <mxPoint x="171" y="540"/>
                        </Array>
                    </mxGeometry>
                </mxCell>
                <mxCell id="11" value="!pmem_resp" style="edgeStyle=none;html=1;exitX=1;exitY=1;exitDx=0;exitDy=0;entryX=0;entryY=1;entryDx=0;entryDy=0;" edge="1" parent="OgqMPnVHMlgZvbWQcypy-1" source="2" target="2">
                    <mxGeometry relative="1" as="geometry">
                        <Array as="points">
                            <mxPoint x="468" y="550"/>
                            <mxPoint x="440" y="560"/>
                            <mxPoint x="400" y="540"/>
                        </Array>
                    </mxGeometry>
                </mxCell>
            </root>
        </mxGraphModel>
    </diagram>
</mxfile>